Coordinates
version=1
nRows=11
nColumns=63
inDegrees=yes

Units are S.I. units (second, meters, Newtons, ...)
If the header above contains a line with 'inDegrees', this indicates whether rotational values are in degrees (yes) or radians (no).

endheader
time	pelvis_tilt	pelvis_list	pelvis_rotation	pelvis_tx	pelvis_ty	pelvis_tz	hip_flexion_r	hip_adduction_r	hip_rotation_r	knee_angle_r	knee_angle_r_beta	ankle_angle_r	subtalar_angle_r	mtp_angle_r	hip_flexion_l	hip_adduction_l	hip_rotation_l	knee_angle_l	knee_angle_l_beta	ankle_angle_l	subtalar_angle_l	mtp_angle_l	L5_S1_Flex_Ext	L5_S1_Lat_Bending	L5_S1_axial_rotation	L4_L5_Flex_Ext	L4_L5_Lat_Bending	L4_L5_axial_rotation	L3_L4_Flex_Ext	L3_L4_Lat_Bending	L3_L4_axial_rotation	L2_L3_Flex_Ext	L2_L3_Lat_Bending	L2_L3_axial_rotation	L1_L2_Flex_Ext	L1_L2_Lat_Bending	L1_L2_axial_rotation	L1_T12_Flex_Ext	L1_T12_Lat_Bending	L1_T12_axial_rotation	Abs_r3	Abs_r2	Abs_r1	Abs_t1	Abs_t2	neck_flexion	neck_bending	neck_rotation	arm_flex_r	arm_add_r	arm_rot_r	elbow_flex_r	pro_sup_r	wrist_flex_r	wrist_dev_r	arm_flex_l	arm_add_l	arm_rot_l	elbow_flex_l	pro_sup_l	wrist_flex_l	wrist_dev_l
7.741379	-2.354566	0.381738	102.567445	0.253364	0.888435	0.646193	-6.321394	0.156823	-4.504018	1.885929	0.032916	23.878125	-12.881668	0.000000	-4.463340	-0.249673	20.847906	0.383594	0.006695	26.441962	-8.864818	0.000000	-0.059673	-0.362331	0.658788	-0.110819	-0.481900	0.699962	-0.098037	-0.880970	0.699962	-0.068200	-0.880970	0.576439	-0.055412	-0.738864	0.535265	-0.034097	-0.561250	0.494091	-0.426239	-4.098755	3.663979	0.000000	0.000000	13.116789	10.598918	6.090168	13.105313	-14.485098	13.621415	144.034040	81.401252	14.829288	5.095454	22.394012	-20.383044	24.841771	144.359056	73.361972	5.046052	-2.847604
7.758621	-2.244439	0.305390	102.492049	0.253463	0.888175	0.646659	-6.024029	0.208800	-4.575111	2.188756	0.038201	24.199277	-12.534237	0.000000	-4.333131	-0.336446	20.812894	0.386462	0.006745	26.494538	-8.889203	0.000000	-0.050554	-0.351963	0.593777	-0.093884	-0.468111	0.630889	-0.083055	-0.855763	0.630889	-0.057778	-0.855763	0.519555	-0.046945	-0.717723	0.482444	-0.028887	-0.545191	0.445333	-0.361103	-3.981479	3.302412	0.000000	0.000000	13.415566	10.619398	6.427347	12.935798	-14.626716	14.988501	145.885209	81.199323	15.274463	5.623858	21.728083	-20.896253	25.064750	146.152519	73.878736	8.092112	-3.196075
7.775862	-2.150437	0.283986	102.423011	0.253595	0.888004	0.647192	-5.790992	0.263150	-4.657231	2.502769	0.043682	24.374369	-12.258598	0.000000	-4.265174	-0.419126	20.774760	0.390690	0.006819	26.462432	-8.980651	0.000000	-0.046484	-0.343610	0.515187	-0.086325	-0.457002	0.547386	-0.076368	-0.835454	0.547386	-0.053126	-0.835454	0.450788	-0.043165	-0.700690	0.418589	-0.026561	-0.532252	0.386390	-0.332030	-3.886989	2.865313	0.000000	0.000000	13.577357	10.624038	6.770948	12.931994	-14.676430	16.501627	147.500550	81.248021	15.823791	6.007385	21.141718	-21.385338	25.249682	147.663155	74.695469	11.063049	-3.648153
7.793103	-2.091571	0.298828	102.372088	0.253755	0.887884	0.647805	-5.616858	0.296736	-4.744172	2.802280	0.048909	24.446400	-12.062097	0.000000	-4.241247	-0.474956	20.746090	0.395945	0.006911	26.373499	-9.107762	0.000000	-0.046972	-0.340391	0.426016	-0.087231	-0.452720	0.452642	-0.077170	-0.827626	0.452642	-0.053684	-0.827626	0.372764	-0.043618	-0.694125	0.346138	-0.026840	-0.527265	0.319512	-0.335513	-3.850569	2.369373	0.000000	0.000000	13.675486	10.618889	7.084210	13.115487	-14.653804	18.139546	148.761398	81.810243	16.583801	5.853733	20.693512	-21.886345	25.457680	148.879395	75.745684	13.695421	-4.323268
7.810345	-2.053053	0.335104	102.328003	0.253916	0.887780	0.648414	-5.493999	0.319403	-4.806515	3.065216	0.053498	24.440100	-11.952262	0.000000	-4.246803	-0.514351	20.765190	0.401671	0.007010	26.234784	-9.318611	0.000000	-0.049282	-0.341358	0.341928	-0.091522	-0.454006	0.363298	-0.080966	-0.829978	0.363298	-0.056325	-0.829978	0.299187	-0.045763	-0.696097	0.277816	-0.028160	-0.528764	0.256446	-0.352018	-3.861511	1.901700	0.000000	0.000000	13.737867	10.603916	7.275527	13.419172	-14.602945	19.763073	149.704030	83.165796	17.442953	5.281808	20.417574	-22.374282	25.754771	149.785093	77.071579	15.900367	-5.318870
7.827586	-2.042796	0.386066	102.285292	0.254083	0.887683	0.648970	-5.426069	0.321648	-4.820054	3.269398	0.057062	24.383539	-11.936570	0.000000	-4.277613	-0.528974	20.800665	0.406274	0.007091	26.073278	-9.546546	0.000000	-0.053417	-0.347659	0.273476	-0.099200	-0.462386	0.290568	-0.087758	-0.845297	0.290568	-0.061050	-0.845297	0.239291	-0.049603	-0.708946	0.222199	-0.030522	-0.538523	0.205107	-0.381549	-3.932785	1.520990	0.000000	0.000000	13.793828	10.597951	7.292945	13.781210	-14.536552	21.227228	150.335987	84.931893	18.312722	4.603066	20.331378	-22.826717	26.170777	150.378115	78.196240	17.819701	-6.471653
7.844828	-2.059058	0.443070	102.224027	0.254274	0.887595	0.649447	-5.405735	0.300072	-4.759502	3.402148	0.059379	24.297798	-12.003097	0.000000	-4.324312	-0.517664	20.883523	0.408774	0.007134	25.878170	-9.846913	0.000000	-0.058144	-0.358380	0.225819	-0.107980	-0.476645	0.239933	-0.095525	-0.871365	0.239933	-0.066453	-0.871365	0.197592	-0.053993	-0.730808	0.183478	-0.033224	-0.555131	0.169364	-0.415318	-4.054066	1.255938	0.000000	0.000000	13.839094	10.584283	7.158626	14.170001	-14.455635	22.467233	150.646510	86.341889	18.964831	4.006216	20.398269	-23.237062	26.691658	150.678507	78.787384	19.520891	-7.515229
7.862069	-2.107622	0.503813	102.147745	0.254498	0.887529	0.649847	-5.434412	0.250080	-4.614318	3.451750	0.060244	24.188410	-12.163516	0.000000	-4.382554	-0.475963	21.057888	0.409134	0.007141	25.645856	-10.255832	0.000000	-0.064301	-0.373642	0.198774	-0.119413	-0.496944	0.211197	-0.105640	-0.908474	0.211197	-0.073489	-0.908474	0.173927	-0.059710	-0.761931	0.161504	-0.036741	-0.578772	0.149080	-0.459293	-4.226716	1.105521	0.000000	0.000000	13.887282	10.551580	6.891659	14.559479	-14.349044	23.429167	150.664335	86.772156	19.201117	3.582261	20.582878	-23.605833	27.288441	150.716113	78.454064	20.950605	-8.165030
7.879310	-2.184853	0.559762	102.044338	0.254762	0.887485	0.650159	-5.502612	0.170563	-4.379065	3.413045	0.059569	24.079614	-12.378654	0.000000	-4.441841	-0.404943	21.191930	0.407819	0.007118	25.424395	-10.604445	0.000000	-0.070657	-0.392096	0.189694	-0.131217	-0.521488	0.201550	-0.116083	-0.953343	0.201550	-0.080754	-0.953343	0.165982	-0.065612	-0.799563	0.154126	-0.040373	-0.607357	0.142270	-0.504697	-4.435471	1.055020	0.000000	0.000000	13.931612	10.491757	6.580389	14.947232	-14.199459	24.085406	150.448776	86.016989	18.840318	3.489384	20.826279	-23.950192	27.886541	150.537731	77.351563	21.964577	-8.405358
7.896552	-2.300195	0.590907	101.908763	0.255084	0.887453	0.650374	-5.588590	0.047636	-4.028131	3.290836	0.057436	23.965481	-12.677354	0.000000	-4.484005	-0.290898	21.337036	0.405052	0.007069	25.181326	-10.972691	0.000000	-0.074947	-0.415125	0.193490	-0.139183	-0.552117	0.205583	-0.123130	-1.009336	0.205583	-0.085657	-1.009336	0.169304	-0.069595	-0.846524	0.157211	-0.042825	-0.643029	0.145118	-0.535337	-4.695980	1.076133	0.000000	0.000000	13.986580	10.394865	6.253544	15.329057	-14.004618	24.480137	150.042040	84.153516	17.874023	3.798414	21.087986	-24.275541	28.400814	150.197491	75.438564	22.515645	-8.066570
7.913793	-2.426187	0.614537	101.740399	0.255427	0.887446	0.650486	-5.708464	-0.087819	-3.567717	3.081022	0.053774	23.840094	-13.045123	0.000000	-4.523911	-0.165028	21.491892	0.400550	0.006991	24.938526	-11.358575	0.000000	-0.078932	-0.438146	0.204176	-0.146584	-0.582734	0.216937	-0.129677	-1.065309	0.216937	-0.090211	-1.065309	0.178654	-0.073296	-0.893468	0.165893	-0.045102	-0.678688	0.153132	-0.563803	-4.956397	1.135565	0.000000	0.000000	14.060046	10.279988	5.998729	15.727693	-13.803034	24.685117	149.486497	81.442847	16.369105	4.535808	21.344535	-24.549369	28.745589	149.725196	72.761003	22.723227	-7.060228
